<?xml version="1.0" standalone="no"?>
<!DOCTYPE svg PUBLIC "-//W3C//DTD SVG 20010904//EN"
 "http://www.w3.org/TR/2001/REC-SVG-20010904/DTD/svg10.dtd">
<svg version="1.0" xmlns="http://www.w3.org/2000/svg"
 width="1280.000000pt" height="1181.000000pt" viewBox="0 0 1280.000000 1181.000000"
 preserveAspectRatio="xMidYMid meet">
<g transform="translate(0.000000,1181.000000) scale(0.100000,-0.100000)"
fill="#000000" stroke="none">
<path d="M6193 10857 c-133 -402 -411 -1247 -618 -1877 -207 -630 -425 -1291
-484 -1470 l-108 -325 -2347 -3 c-1510 -1 -2346 -6 -2344 -12 2 -5 844 -613
1873 -1351 1029 -737 1880 -1351 1893 -1363 l22 -22 -176 -534 c-96 -294 -290
-881 -429 -1305 -139 -423 -366 -1114 -505 -1535 -138 -421 -271 -825 -295
-897 -24 -73 -40 -133 -36 -133 5 0 858 610 1897 1356 1348 968 1894 1354
1909 1352 11 -3 867 -613 1903 -1357 1036 -744 1886 -1351 1888 -1348 5 5
-157 500 -1061 3252 -364 1108 -377 1145 -373 1156 2 5 851 618 1887 1362
1036 743 1886 1358 1889 1365 3 9 -477 12 -2336 12 -1860 0 -2341 3 -2349 13
-5 6 -332 995 -727 2197 -395 1202 -721 2188 -725 2192 -4 4 -115 -322 -248
-725z"/>
</g>
</svg>
